<?xml version="1.0" standalone="no"?>
<!DOCTYPE svg PUBLIC "-//W3C//DTD SVG 20010904//EN"
 "http://www.w3.org/TR/2001/REC-SVG-20010904/DTD/svg10.dtd">
<svg version="1.0" xmlns="http://www.w3.org/2000/svg"
 width="400.000000pt" height="400.000000pt" viewBox="0 0 400.000000 400.000000"
 preserveAspectRatio="xMidYMid meet">
<metadata>
Created by potrace 1.14, written by Peter Selinger 2001-2017
</metadata>
<g transform="translate(0.000000,400.000000) scale(0.100000,-0.100000)"
fill="#000000" stroke="none">
<path d="M1736 3872 c-4 -3 -16 -7 -29 -8 -58 -7 -138 -24 -152 -33 -5 -3 -13
-6 -17 -7 -5 -1 -9 -2 -10 -3 -2 -2 -13 -4 -25 -7 -37 -7 -124 -50 -116 -58 4
-4 1 -4 -8 -1 -32 12 -149 -100 -133 -127 3 -4 -2 -8 -10 -8 -19 0 -21 -26 -3
-33 9 -4 9 -6 -1 -6 -7 -1 -17 9 -22 22 -5 12 -9 19 -9 14 -1 -4 -13 -1 -28 7
-41 21 -100 11 -176 -29 -149 -77 -427 -338 -483 -451 -29 -58 -31 -82 -22
-188 3 -26 -1 -31 -27 -36 -106 -23 -172 -110 -241 -320 -24 -71 -51 -176 -60
-230 -2 -14 -6 -34 -9 -45 -2 -11 -7 -62 -11 -113 -5 -74 -3 -101 10 -136 9
-24 24 -47 31 -50 22 -8 18 -33 -12 -73 -24 -32 -28 -47 -32 -120 -5 -130 35
-319 109 -515 12 -32 21 -61 20 -64 -1 -4 3 -10 8 -13 16 -10 52 -88 44 -96
-4 -5 -2 -5 4 -2 6 4 19 -2 28 -12 14 -15 14 -20 4 -25 -9 -4 -9 -5 2 -5 22 2
60 -12 56 -20 -2 -3 13 -6 35 -5 33 0 37 -2 26 -15 -10 -12 -9 -14 6 -8 13 5
17 3 14 -5 -2 -7 -9 -12 -14 -11 -5 1 -10 -4 -10 -12 0 -8 5 -12 10 -8 5 3 5
-2 -1 -13 -12 -24 -9 -83 6 -110 6 -12 8 -24 5 -28 -3 -3 -1 -6 5 -6 7 0 12
-9 12 -20 0 -11 5 -20 10 -20 6 0 10 -7 10 -15 0 -8 5 -15 12 -15 6 0 9 -3 5
-6 -3 -3 6 -17 20 -30 13 -12 22 -28 18 -34 -3 -6 -3 -10 2 -9 23 4 35 -2 29
-17 -4 -9 -2 -13 5 -8 13 8 61 -44 53 -58 -3 -4 -2 -8 3 -7 19 3 33 -2 33 -12
0 -11 25 -39 35 -39 13 0 34 -28 27 -35 -4 -5 1 -5 11 -2 13 5 20 0 27 -18 5
-14 16 -25 24 -25 8 0 16 -4 18 -9 2 -5 10 -11 18 -13 8 -2 20 -14 27 -28 7
-14 12 -19 13 -12 0 6 5 12 11 12 5 0 7 -5 4 -10 -3 -6 1 -10 9 -10 9 0 16 -4
16 -9 0 -5 14 -14 30 -20 17 -5 30 -14 30 -20 0 -5 11 -8 25 -7 13 2 22 0 20
-4 -3 -5 2 -10 10 -14 8 -3 17 -1 20 4 4 6 12 10 18 10 8 0 8 -3 -1 -9 -11 -7
-11 -9 2 -14 8 -3 18 -2 21 3 3 4 16 7 30 5 14 -1 25 2 25 6 0 5 7 9 15 9 8 0
15 -6 15 -14 0 -8 4 -18 10 -21 6 -4 7 1 3 12 -6 16 -5 16 10 4 14 -11 15 -16
5 -29 -9 -11 -9 -14 -1 -9 6 4 20 -1 30 -12 24 -26 85 -67 112 -76 12 -3 19
-10 16 -15 -3 -5 0 -12 6 -16 8 -4 9 -3 5 4 -10 16 7 15 23 0 11 -11 12 -10 6
2 -8 13 -7 13 9 0 10 -8 27 -15 39 -17 11 -2 26 -8 33 -14 7 -6 18 -8 23 -5 5
4 14 -2 20 -11 6 -10 11 -12 11 -5 0 6 5 12 11 12 5 0 7 -5 3 -12 -4 -7 -3 -8
5 -4 6 4 19 2 28 -6 10 -7 14 -8 10 -1 -5 7 0 9 13 6 26 -7 26 -33 0 -28 -11
2 -22 0 -24 -4 -3 -4 7 -7 22 -6 17 0 28 7 30 18 2 10 8 15 13 11 9 -5 61 -13
124 -18 11 0 26 -5 34 -10 9 -6 12 -5 8 1 -4 6 7 13 27 17 19 4 46 16 60 27
23 18 29 19 43 7 15 -12 15 -11 5 9 -9 17 -9 22 3 27 19 7 67 -33 58 -48 -3
-6 -2 -8 2 -3 5 4 18 1 30 -7 12 -8 35 -15 51 -17 16 -2 35 -7 42 -12 7 -6 18
-5 27 3 14 12 19 7 16 -13 -1 -5 3 -6 9 -2 6 3 8 10 5 15 -3 4 8 10 25 12 16
2 27 1 25 -3 -3 -4 2 -9 10 -12 9 -4 12 -1 8 9 -3 7 0 14 6 14 6 0 11 -5 11
-11 0 -5 5 -7 10 -4 6 4 8 10 6 14 -3 4 5 8 17 9 37 4 51 7 64 15 7 4 22 3 33
-3 17 -9 19 -8 13 7 -3 10 -3 15 1 11 4 -3 23 0 42 8 19 8 39 12 44 9 6 -4 10
-2 10 3 0 14 57 35 71 26 8 -4 10 -3 5 4 -6 11 6 16 19 10 2 -2 11 6 19 17 15
20 15 20 11 -3 -2 -13 0 -20 6 -17 5 4 7 11 4 16 -4 5 6 22 22 37 15 16 29 33
31 38 1 5 10 9 19 9 9 0 17 6 19 13 1 7 0 8 -3 2 -7 -14 -23 -13 -23 3 0 7 9
18 21 25 12 8 18 9 15 4 -3 -6 9 -11 29 -11 59 -3 65 -4 65 -15 0 -6 4 -5 9 3
6 9 20 12 40 9 26 -4 29 -2 18 11 -8 9 -8 12 -1 8 7 -4 17 0 24 8 7 8 16 12
21 9 5 -3 12 2 15 11 6 14 9 14 28 -2 15 -13 17 -13 8 -2 -14 19 -4 33 14 19
9 -8 12 -6 10 7 -1 12 6 18 20 17 16 0 20 4 16 15 -4 10 -1 13 11 8 9 -3 17
-2 17 4 0 12 25 39 36 39 4 0 17 11 30 26 13 14 24 21 24 17 0 -4 9 5 19 20
10 16 21 27 24 25 6 -3 117 98 117 107 0 12 41 45 50 40 5 -3 12 0 16 6 4 8 3
9 -4 5 -7 -4 -12 -2 -12 3 0 6 5 11 10 11 6 0 10 5 10 10 0 21 53 90 69 90 13
0 13 2 2 9 -8 6 -10 14 -5 22 5 8 10 23 11 34 2 10 9 23 16 27 9 6 9 8 0 8 -8
0 -13 13 -13 30 0 17 -5 30 -11 30 -8 0 -9 4 0 13 6 8 8 17 4 20 -3 4 -4 7 0
7 3 0 12 -7 21 -15 13 -14 15 -13 13 4 0 11 -5 17 -11 14 -5 -3 -6 -1 -3 4 4
6 18 13 31 15 19 4 24 1 21 -14 -2 -10 0 -16 6 -13 5 4 7 11 4 16 -8 12 72 92
84 85 5 -4 13 -1 17 5 4 7 3 9 -4 5 -6 -3 -13 -2 -17 4 -3 5 -2 10 3 10 5 0
12 10 15 21 4 15 11 20 23 15 15 -6 15 -4 3 10 -11 14 -11 18 6 30 10 8 14 14
7 14 -7 0 -5 12 7 33 10 17 24 31 30 29 6 -1 11 3 11 9 0 6 -7 9 -15 5 -20 -7
-19 4 3 21 10 8 11 11 2 7 -13 -7 -13 -5 -1 9 7 9 10 17 6 17 -4 0 -2 6 4 13
6 8 8 17 4 20 -3 4 -1 7 4 7 6 0 10 8 9 18 -5 28 10 67 24 64 10 -2 10 1 -1
14 -12 16 -12 17 2 12 9 -4 16 -1 16 8 0 7 -4 11 -9 8 -13 -8 -10 10 5 25 10
11 9 12 -3 6 -12 -6 -12 -5 -3 5 6 7 9 19 6 28 -4 8 -2 13 3 10 5 -3 9 16 10
43 0 36 6 53 20 64 15 12 15 14 2 9 -15 -5 -16 2 -13 63 2 52 -2 78 -17 110
-11 24 -25 43 -30 43 -6 0 -5 7 2 15 11 13 10 14 -4 9 -12 -5 -15 -2 -10 10 3
9 11 13 17 9 7 -4 8 0 4 11 -5 14 -3 17 8 13 8 -4 17 -1 21 5 4 6 3 8 -4 4 -6
-3 -13 -2 -17 4 -3 5 -1 10 5 10 6 0 8 5 5 10 -3 6 -1 10 5 10 6 0 8 5 5 10
-3 6 2 10 12 11 16 0 16 1 -2 9 -12 5 -14 9 -6 9 8 1 11 4 8 7 -3 4 -2 16 4
27 6 11 7 17 1 13 -5 -3 -10 12 -10 37 -1 72 -7 126 -15 133 -13 13 -8 46 6
38 6 -4 3 3 -8 15 -13 15 -20 37 -20 66 0 24 -4 40 -9 37 -5 -3 -7 5 -4 16 4
13 1 22 -5 22 -7 0 -5 5 3 10 13 8 12 10 -2 10 -21 0 -23 11 -5 29 10 10 9 12
-2 9 -9 -2 -21 20 -37 67 -12 38 -21 71 -19 74 2 2 -6 12 -18 23 -12 11 -16
16 -8 12 16 -8 -29 56 -66 95 -13 13 -23 28 -23 33 0 5 -4 7 -9 4 -12 -8 -63
33 -55 45 3 5 0 8 -6 7 -16 -4 -18 15 -11 84 4 31 4 55 0 52 -10 -6 -21 45
-13 58 4 6 3 8 -3 5 -6 -4 -19 10 -29 30 -22 42 -263 282 -344 343 -73 55
-175 113 -226 129 -34 11 -47 11 -88 -3 -66 -22 -71 -21 -103 26 -16 23 -43
52 -61 64 -89 60 -314 129 -459 140 -94 8 -159 -10 -192 -52 -24 -30 -34 -30
-63 1 -13 13 -39 31 -58 38 -34 14 -163 21 -174 9z m379 -657 c11 -1 19 -9 17
-16 -3 -11 -1 -12 9 -1 16 15 55 16 64 2 4 -6 11 -8 16 -4 15 9 222 -56 239
-75 3 -4 19 -8 35 -10 17 -1 32 -6 35 -10 3 -3 14 -11 25 -18 11 -6 19 -17 17
-23 -2 -8 3 -10 13 -6 9 3 25 -4 37 -16 13 -13 29 -23 36 -25 8 -1 24 -10 36
-21 11 -11 33 -30 48 -42 15 -13 25 -28 21 -33 -3 -6 -2 -7 4 -4 15 10 157
-138 148 -154 -5 -8 -5 -11 0 -7 7 6 40 -19 40 -30 0 -3 15 -20 33 -37 18 -19
32 -43 32 -56 0 -13 11 -43 25 -67 26 -46 92 -206 98 -238 2 -10 9 -37 15 -59
16 -61 37 -252 35 -326 -4 -199 -91 -457 -202 -604 -47 -61 -253 -269 -297
-299 -17 -11 -57 -41 -88 -64 -134 -102 -249 -150 -428 -178 -98 -16 -188 -14
-323 5 -128 18 -170 27 -200 43 -16 9 -52 23 -80 32 -53 18 -96 43 -203 118
-108 75 -201 152 -201 167 -1 8 -4 12 -7 8 -10 -9 -85 83 -78 95 4 6 2 8 -3 5
-6 -4 -25 9 -42 28 -29 33 -36 47 -32 68 1 5 -3 6 -8 3 -5 -3 -14 1 -21 9 -7
8 -9 15 -5 15 5 0 1 8 -7 18 -23 26 -48 79 -41 86 4 3 1 6 -5 6 -14 0 -36 66
-26 81 4 8 3 9 -4 5 -7 -4 -14 4 -17 21 -4 15 -11 38 -16 51 -5 13 -7 27 -4
32 3 5 1 11 -4 14 -11 7 -23 73 -26 138 -1 26 -4 51 -8 55 -10 9 -9 145 0 140
5 -3 7 22 6 55 -2 52 -1 59 14 54 13 -5 14 -4 4 8 -7 8 -8 17 -3 20 5 3 8 20
7 38 -2 34 20 142 32 162 4 6 8 16 8 21 0 28 50 125 62 121 7 -3 15 0 19 6 4
6 3 8 -4 4 -6 -3 -13 -2 -17 4 -3 6 1 13 9 16 9 3 14 10 11 14 -3 5 3 16 12
26 10 10 17 18 15 18 -2 1 1 13 7 28 11 29 43 52 56 40 5 -4 5 -1 1 6 -4 7
-13 9 -19 6 -7 -4 4 11 24 32 20 21 46 54 58 72 12 17 30 32 39 32 12 0 13 3
5 8 -9 6 0 19 30 45 64 57 71 62 79 59 5 -1 7 1 7 5 -3 20 2 24 16 13 13 -11
14 -10 10 2 -7 19 97 93 119 85 10 -4 13 -1 10 8 -4 8 7 20 28 31 18 9 36 22
40 28 4 6 8 7 8 3 0 -5 12 1 26 12 15 11 30 18 35 15 5 -3 9 -1 9 5 0 9 59 30
100 36 8 1 28 7 44 14 16 6 31 10 33 7 2 -2 23 2 47 9 37 11 46 11 59 -2 11
-12 16 -12 22 -2 5 7 4 10 -3 5 -6 -3 -14 -1 -17 5 -5 7 12 10 58 7 36 -1 69
0 73 4 6 6 38 4 119 -7z"/>
<path d="M2057 3195 c-4 -8 -3 -16 1 -19 4 -3 9 4 9 15 2 23 -3 25 -10 4z"/>
<path d="M2015 3180 c3 -5 8 -10 11 -10 2 0 4 5 4 10 0 6 -5 10 -11 10 -5 0
-7 -4 -4 -10z"/>
<path d="M2175 3180 c3 -5 8 -10 11 -10 2 0 4 5 4 10 0 6 -5 10 -11 10 -5 0
-7 -4 -4 -10z"/>
<path d="M1950 3160 c0 -5 5 -10 11 -10 5 0 7 5 4 10 -3 6 -8 10 -11 10 -2 0
-4 -4 -4 -10z"/>
<path d="M1635 3151 c-3 -5 -2 -12 3 -15 5 -3 9 1 9 9 0 17 -3 19 -12 6z"/>
<path d="M1596 3142 c-3 -5 1 -9 9 -9 8 0 12 4 9 9 -3 4 -7 8 -9 8 -2 0 -6 -4
-9 -8z"/>
<path d="M1660 3126 c0 -2 8 -10 18 -17 15 -13 16 -12 3 4 -13 16 -21 21 -21
13z"/>
<path d="M1610 3100 c0 -5 5 -10 11 -10 5 0 7 5 4 10 -3 6 -8 10 -11 10 -2 0
-4 -4 -4 -10z"/>
<path d="M1516 3082 c-3 -5 1 -9 9 -9 8 0 12 4 9 9 -3 4 -7 8 -9 8 -2 0 -6 -4
-9 -8z"/>
<path d="M1473 3005 c0 -8 4 -12 9 -9 5 3 6 10 3 15 -9 13 -12 11 -12 -6z"/>
<path d="M1389 2997 c6 -8 7 -18 3 -22 -4 -5 -1 -5 6 -1 10 6 10 11 1 22 -6 8
-14 14 -16 14 -3 0 0 -6 6 -13z"/>
<path d="M1359 2998 c-5 -19 -8 -50 -4 -46 7 7 15 48 9 48 -2 0 -4 -1 -5 -2z"/>
<path d="M1436 2958 c3 -5 10 -6 15 -3 13 9 11 12 -6 12 -8 0 -12 -4 -9 -9z"/>
<path d="M1280 2920 c-9 -6 -10 -10 -3 -10 6 0 15 5 18 10 8 12 4 12 -15 0z"/>
<path d="M1231 2887 c-8 -10 -7 -14 2 -14 8 0 14 6 14 14 0 7 -1 13 -2 13 -2
0 -8 -6 -14 -13z"/>
<path d="M1215 2820 c3 -5 8 -10 11 -10 2 0 4 5 4 10 0 6 -5 10 -11 10 -5 0
-7 -4 -4 -10z"/>
<path d="M2840 2806 c0 -2 8 -10 18 -17 15 -13 16 -12 3 4 -13 16 -21 21 -21
13z"/>
<path d="M1175 2780 c3 -5 8 -10 11 -10 2 0 4 5 4 10 0 6 -5 10 -11 10 -5 0
-7 -4 -4 -10z"/>
<path d="M1120 2760 c-9 -6 -10 -10 -3 -10 6 0 15 5 18 10 8 12 4 12 -15 0z"/>
<path d="M1113 2725 c0 -8 4 -15 9 -15 4 0 8 4 8 9 0 6 -4 12 -8 15 -5 3 -9
-1 -9 -9z"/>
<path d="M1060 2706 c0 -2 8 -10 18 -17 15 -13 16 -12 3 4 -13 16 -21 21 -21
13z"/>
<path d="M1050 2626 c0 -2 7 -7 16 -10 8 -3 12 -2 9 4 -6 10 -25 14 -25 6z"/>
<path d="M1006 2578 c3 -5 10 -6 15 -3 13 9 11 12 -6 12 -8 0 -12 -4 -9 -9z"/>
<path d="M955 2490 c-4 -6 -11 -7 -17 -4 -7 4 -8 2 -4 -5 6 -9 11 -9 22 0 14
11 18 19 10 19 -3 0 -8 -5 -11 -10z"/>
<path d="M1885 2436 c-116 -38 -225 -122 -282 -217 -87 -146 -80 -346 17 -490
16 -24 26 -48 23 -54 -4 -5 -3 -7 2 -3 13 12 34 -11 28 -30 -3 -13 -2 -14 4
-4 8 10 17 6 41 -17 18 -16 32 -27 32 -23 0 3 8 -2 18 -10 9 -8 48 -24 85 -36
91 -29 202 -31 282 -4 43 15 63 18 73 10 9 -8 11 -7 6 7 -6 14 -3 16 17 10 15
-4 19 -3 11 3 -10 6 -3 16 27 35 44 29 80 64 99 96 6 11 17 29 24 40 22 36 4
51 -65 51 -60 0 -67 -2 -122 -45 -72 -57 -146 -80 -227 -71 -32 3 -73 13 -91
22 -55 29 -109 76 -103 91 3 8 2 11 -4 8 -5 -3 -14 3 -19 14 -14 26 -14 34 1
25 7 -4 8 -3 4 5 -4 6 -11 9 -16 6 -13 -8 -19 32 -6 46 8 9 8 10 -1 5 -8 -4
-14 2 -17 16 -8 35 -2 138 7 138 5 0 5 4 2 10 -9 14 31 99 49 106 9 3 14 10
11 14 -6 10 55 64 98 86 47 25 176 29 227 7 23 -10 38 -23 36 -30 -3 -7 1 -10
10 -6 15 6 47 -15 40 -26 -10 -16 55 -10 98 9 49 21 63 39 50 68 -4 9 -6 21
-5 27 2 5 0 7 -4 3 -4 -3 -30 11 -58 32 -80 61 -146 83 -262 86 -65 3 -114 -1
-140 -10z"/>
<path d="M1959 2273 c-13 -16 -12 -17 4 -4 9 7 17 15 17 17 0 8 -8 3 -21 -13z"/>
<path d="M865 2260 c-3 -6 1 -7 9 -4 18 7 21 14 7 14 -6 0 -13 -4 -16 -10z"/>
<path d="M1995 2251 c-3 -5 -2 -12 3 -15 5 -3 9 1 9 9 0 17 -3 19 -12 6z"/>
<path d="M1890 2219 c0 -5 5 -7 10 -4 6 3 10 8 10 11 0 2 -4 4 -10 4 -5 0 -10
-5 -10 -11z"/>
<path d="M2155 2219 c-3 -4 2 -6 10 -5 21 3 28 13 10 13 -9 0 -18 -4 -20 -8z"/>
<path d="M2330 2225 c0 -5 5 -17 10 -25 5 -8 10 -10 10 -5 0 6 -5 17 -10 25
-5 8 -10 11 -10 5z"/>
<path d="M1839 2193 c-13 -16 -12 -17 4 -4 9 7 17 15 17 17 0 8 -8 3 -21 -13z"/>
<path d="M1760 2120 c-9 -6 -10 -10 -3 -10 6 0 15 5 18 10 8 12 4 12 -15 0z"/>
<path d="M856 2102 c-3 -5 1 -9 9 -9 8 0 12 4 9 9 -3 4 -7 8 -9 8 -2 0 -6 -4
-9 -8z"/>
<path d="M1753 2075 c0 -8 4 -12 9 -9 4 3 8 9 8 15 0 5 -4 9 -8 9 -5 0 -9 -7
-9 -15z"/>
<path d="M830 2000 c0 -5 5 -10 11 -10 5 0 7 5 4 10 -3 6 -8 10 -11 10 -2 0
-4 -4 -4 -10z"/>
<path d="M1730 1940 c0 -5 5 -10 11 -10 5 0 7 5 4 10 -3 6 -8 10 -11 10 -2 0
-4 -4 -4 -10z"/>
<path d="M2330 1619 c0 -5 5 -7 10 -4 6 3 10 8 10 11 0 2 -4 4 -10 4 -5 0 -10
-5 -10 -11z"/>
<path d="M2129 1517 c6 -8 7 -18 3 -22 -4 -5 -1 -5 6 -1 10 6 10 11 1 22 -6 8
-14 14 -16 14 -3 0 0 -6 6 -13z"/>
<path d="M2010 1499 c0 -5 5 -7 10 -4 6 3 10 8 10 11 0 2 -4 4 -10 4 -5 0 -10
-5 -10 -11z"/>
<path d="M3870 2286 c0 -2 7 -7 16 -10 8 -3 12 -2 9 4 -6 10 -25 14 -25 6z"/>
<path d="M3855 1969 c-4 -6 -5 -12 -2 -15 2 -3 7 2 10 11 7 17 1 20 -8 4z"/>
<path d="M3870 1639 c0 -5 5 -7 10 -4 6 3 10 8 10 11 0 2 -4 4 -10 4 -5 0 -10
-5 -10 -11z"/>
<path d="M3826 1502 c-3 -5 1 -9 9 -9 8 0 12 4 9 9 -3 4 -7 8 -9 8 -2 0 -6 -4
-9 -8z"/>
<path d="M3810 1419 c0 -5 5 -7 10 -4 6 3 10 8 10 11 0 2 -4 4 -10 4 -5 0 -10
-5 -10 -11z"/>
<path d="M3767 1279 c7 -7 15 -10 18 -7 3 3 -2 9 -12 12 -14 6 -15 5 -6 -5z"/>
<path d="M3655 1131 c-3 -5 -2 -12 3 -15 5 -3 9 1 9 9 0 17 -3 19 -12 6z"/>
<path d="M3540 1012 c6 -12 8 -28 4 -34 -4 -7 -3 -8 4 -4 16 10 15 18 -4 42
-14 18 -15 18 -4 -4z"/>
<path d="M3491 804 c0 -11 3 -14 6 -6 3 7 2 16 -1 19 -3 4 -6 -2 -5 -13z"/>
<path d="M3386 658 c3 -5 10 -6 15 -3 13 9 11 12 -6 12 -8 0 -12 -4 -9 -9z"/>
<path d="M3375 629 c-4 -6 -5 -12 -2 -15 2 -3 7 2 10 11 7 17 1 20 -8 4z"/>
<path d="M3308 609 c-10 -5 -18 -15 -18 -22 0 -8 3 -7 9 2 5 7 13 11 18 8 5
-3 10 0 10 8 0 8 -1 15 -1 15 -1 0 -9 -5 -18 -11z"/>
<path d="M3146 461 c-3 -4 4 -7 14 -6 27 2 33 10 10 12 -11 1 -22 -2 -24 -6z"/>
<path d="M830 440 c0 -5 5 -10 11 -10 5 0 7 5 4 10 -3 6 -8 10 -11 10 -2 0 -4
-4 -4 -10z"/>
<path d="M3013 375 c0 -8 4 -12 9 -9 5 3 6 10 3 15 -9 13 -12 11 -12 -6z"/>
<path d="M2810 340 c0 -5 5 -10 11 -10 5 0 7 5 4 10 -3 6 -8 10 -11 10 -2 0
-4 -4 -4 -10z"/>
<path d="M3015 340 c3 -5 8 -10 11 -10 2 0 4 5 4 10 0 6 -5 10 -11 10 -5 0 -7
-4 -4 -10z"/>
<path d="M1119 313 c-13 -16 -12 -17 4 -4 9 7 17 15 17 17 0 8 -8 3 -21 -13z"/>
<path d="M2826 282 c-3 -5 1 -9 9 -9 8 0 12 4 9 9 -3 4 -7 8 -9 8 -2 0 -6 -4
-9 -8z"/>
<path d="M1350 200 c0 -5 5 -10 11 -10 5 0 7 5 4 10 -3 6 -8 10 -11 10 -2 0
-4 -4 -4 -10z"/>
<path d="M1996 167 c3 -10 9 -15 12 -12 3 3 0 11 -7 18 -10 9 -11 8 -5 -6z"/>
<path d="M2515 160 c-3 -5 -1 -10 4 -10 6 0 11 5 11 10 0 6 -2 10 -4 10 -3 0
-8 -4 -11 -10z"/>
<path d="M2476 138 c3 -5 10 -6 15 -3 13 9 11 12 -6 12 -8 0 -12 -4 -9 -9z"/>
<path d="M2413 125 c0 -7 6 -11 14 -8 7 3 13 6 13 8 0 2 -6 5 -13 8 -8 3 -14
-1 -14 -8z"/>
<path d="M1933 113 c0 -10 4 -10 16 -1 9 7 18 13 20 15 2 1 -5 1 -16 0 -11 0
-20 -7 -20 -14z"/>
<path d="M2010 120 c0 -5 5 -10 11 -10 5 0 7 5 4 10 -3 6 -8 10 -11 10 -2 0
-4 -4 -4 -10z"/>
<path d="M2573 115 c0 -8 4 -12 9 -9 5 3 6 10 3 15 -9 13 -12 11 -12 -6z"/>
<path d="M1710 100 c0 -5 5 -10 11 -10 5 0 7 5 4 10 -3 6 -8 10 -11 10 -2 0
-4 -4 -4 -10z"/>
<path d="M2357 88 c19 -21 31 -25 14 -5 -6 8 -9 16 -6 19 3 2 -2 5 -10 5 -13
0 -13 -3 2 -19z"/>
<path d="M1770 79 c0 -5 5 -7 10 -4 6 3 10 8 10 11 0 2 -4 4 -10 4 -5 0 -10
-5 -10 -11z"/>
<path d="M2229 63 c-13 -16 -12 -17 4 -4 16 13 21 21 13 21 -2 0 -10 -8 -17
-17z"/>
<path d="M2293 55 c0 -8 4 -12 9 -9 5 3 6 10 3 15 -9 13 -12 11 -12 -6z"/>
<path d="M2235 20 c-3 -5 -1 -10 4 -10 6 0 11 5 11 10 0 6 -2 10 -4 10 -3 0
-8 -4 -11 -10z"/>
</g>
</svg>
